<svg width="180" height="41" viewBox="0 0 180 41" fill="none" xmlns="http://www.w3.org/2000/svg">
<g id="Logo">
<mask id="mask0_139_327" style="mask-type:luminance" maskUnits="userSpaceOnUse" x="0" y="0" width="180" height="41">
<g id="clip0_66_1028">
<path id="Vector_8" d="M180 0H0V40.9091H180V0Z" fill="white"/>
</g>
</mask>
<g mask="url(#mask0_139_327)">
<g id="Group">
<path id="Vector_9" fill-rule="evenodd" clip-rule="evenodd" d="M15.3409 28.6363C13.9847 28.6363 12.6841 28.0976 11.725 27.1386C10.766 26.1796 10.2273 24.8789 10.2273 23.5227V0H0V23.5227C0 31.9949 6.86864 38.8636 15.3409 38.8636H26.5909V28.6363H15.3409ZM46.0227 10.2272C44.8139 10.2272 43.617 10.4653 42.5003 10.9279C41.3835 11.3905 40.3689 12.0685 39.5142 12.9232C38.6594 13.7779 37.9814 14.7927 37.5188 15.9094C37.0563 17.0261 36.8182 18.223 36.8182 19.4318C36.8182 20.6405 37.0563 21.8375 37.5188 22.9542C37.9814 24.071 38.6594 25.0857 39.5142 25.9404C40.3689 26.7951 41.3835 27.4732 42.5003 27.9357C43.617 28.3983 44.8139 28.6363 46.0227 28.6363C48.464 28.6363 50.8051 27.6666 52.5313 25.9404C54.2575 24.2142 55.2272 21.873 55.2272 19.4318C55.2272 16.9906 54.2575 14.6494 52.5313 12.9232C50.8051 11.1971 48.464 10.2272 46.0227 10.2272ZM26.5909 19.4318C26.5909 8.70033 35.2912 0 46.0227 0C56.7542 0 65.4545 8.70033 65.4545 19.4318C65.4545 30.1632 56.7542 38.8636 46.0227 38.8636C35.2912 38.8636 26.5909 30.1632 26.5909 19.4318ZM156.477 10.2272C154.036 10.2272 151.695 11.1971 149.969 12.9232C148.242 14.6494 147.273 16.9906 147.273 19.4318C147.273 21.873 148.242 24.2142 149.969 25.9404C151.695 27.6666 154.036 28.6363 156.477 28.6363C158.918 28.6363 161.26 27.6666 162.986 25.9404C164.712 24.2142 165.682 21.873 165.682 19.4318C165.682 16.9906 164.712 14.6494 162.986 12.9232C161.26 11.1971 158.918 10.2272 156.477 10.2272ZM137.045 19.4318C137.045 8.70033 145.746 0 156.477 0C167.209 0 175.909 8.70033 175.909 19.4318C175.909 30.1632 167.209 38.8636 156.477 38.8636C145.746 38.8636 137.045 30.1632 137.045 19.4318ZM86.9318 0C76.2003 0 67.5 8.70033 67.5 19.4318C67.5 30.1632 76.2003 38.8636 86.9318 38.8636H115.568C117.582 38.8636 119.524 38.5568 121.351 37.9881L126.818 40.909L132.717 29.8595C134.216 27.0467 135 23.9086 135 20.7214V19.4318C135 8.70033 126.3 0 115.568 0H86.9318ZM124.773 19.4318C124.773 16.9906 123.803 14.6494 122.077 12.9232C120.35 11.1971 118.009 10.2272 115.568 10.2272H86.9318C85.723 10.2272 84.5261 10.4653 83.4094 10.9279C82.2926 11.3905 81.278 12.0685 80.4233 12.9232C79.5685 13.7779 78.8905 14.7927 78.4279 15.9094C77.9653 17.0261 77.7272 18.223 77.7272 19.4318C77.7272 20.6405 77.9653 21.8375 78.4279 22.9542C78.8905 24.071 79.5685 25.0857 80.4233 25.9404C81.278 26.7951 82.2926 27.4732 83.4094 27.9357C84.5261 28.3983 85.723 28.6363 86.9318 28.6363H115.568C117.997 28.6364 120.328 27.6765 122.051 25.9658C123.776 24.2551 124.754 21.9321 124.773 19.5034V19.4318Z" fill="url(#paint0_linear_139_327)"/>
<path id="Vector_10" d="M179.998 2.55681C179.998 3.23492 179.729 3.88526 179.249 4.36476C178.769 4.84425 178.119 5.11363 177.441 5.11363C176.763 5.11363 176.112 4.84425 175.633 4.36476C175.153 3.88526 174.884 3.23492 174.884 2.55681C174.884 1.8787 175.153 1.22837 175.633 0.748878C176.112 0.269378 176.763 0 177.441 0C178.119 0 178.769 0.269378 179.249 0.748878C179.729 1.22837 179.998 1.8787 179.998 2.55681Z" fill="url(#paint1_linear_139_327)"/>
</g>
</g>
</g>
<defs>
<linearGradient id="paint0_linear_139_327" x1="87.9545" y1="0" x2="87.9545" y2="19.9545" gradientUnits="userSpaceOnUse">
<stop stop-color="#B8DBFC"/>
<stop offset="1" stop-color="#2A89E2"/>
</linearGradient>
<linearGradient id="paint1_linear_139_327" x1="177.441" y1="0" x2="177.441" y2="2.95454" gradientUnits="userSpaceOnUse">
<stop stop-color="#B8DBFC"/>
<stop offset="1" stop-color="#2A89E2"/>
</linearGradient>
</defs>
</svg>
